<svg class="letter-svg letter-svg-3" xmlns="http://www.w3.org/2000/svg" viewBox="0 0 512.001 512.001"><circle cx="250" cy="250" r="245" fill="#6cbe451f"/><g class="left-gear"><path d="M289.659 175.66c1.8-12.001 1.8-24 0-36l20.4-14.7c4.801-3.9 6.601-10.201 4.2-15.899l-11.4-27.902c-2.401-5.4-8.101-9-14.399-8.099l-24.901 3.9c-7.2-9.6-15.601-18.301-25.199-25.501l3.6-24.6c1.199-5.999-2.401-11.999-7.8-14.399l-27.9-11.4c-5.7-2.401-12.001-.601-15.901 4.2l-14.7 20.4c-7.5-1.199-15-1.5-22.5-1.199-4.501 0-9 .599-13.5 1.199l-14.7-20.4c-3.9-4.801-10.201-6.601-15.899-4.2l-27.902 11.4c-5.4 2.401-9 8.401-8.099 14.399l3.9 24.901c-9.6 7.2-18.301 15.601-25.501 25.201l-24.6-3.9c-5.999-.901-11.999 2.699-14.399 8.099l-11.4 27.902c-2.401 5.698-.601 11.999 4.2 15.899l20.4 14.7c-1.8 12.001-1.8 24 0 36l-20.4 14.7c-4.801 3.9-6.601 10.199-4.2 15.899l11.4 27.902c2.401 5.4 8.401 9 14.399 7.798l24.901-3.6c7.2 9.6 15.601 18.301 25.201 25.501l-3.9 24.6c-.901 5.999 2.699 11.999 8.099 14.399l27.902 11.4c5.698 2.401 12.299.601 15.899-4.2l14.7-20.4c4.501.601 9 1.199 13.5 1.5 7.5 0 15-.3 22.5-1.5l14.7 20.4c2.701 3.3 6.601 5.4 10.8 5.4 1.8 0 3.6-.599 5.101-1.199l27.9-11.4c5.4-2.401 9-8.401 7.8-14.399l-3.6-24.901c9.598-7.2 17.999-15.601 25.499-25.201l24.6 3.6c6.299 1.201 11.999-2.399 14.399-7.798l11.4-27.902c2.401-5.7.601-11.999-4.2-15.899l-20.4-14.701zm-62.699 10.8c-7.8 18.3-22.202 32.701-40.501 40.499-9.6 3.9-19.2 5.7-28.799 5.7-1.501 0-3.001 0-4.501-.298-27.9-1.501-53.401-18.602-64.799-45.901-7.8-18.6-7.8-39 0-57.599 7.798-18.3 22.2-32.701 40.499-40.499 7.8-3.301 15.899-5.402 24.3-5.7 11.4-.601 22.5 1.199 33.3 5.7 18.3 7.798 32.701 22.2 40.501 40.499 7.798 18.599 7.798 38.999 0 57.599z" fill="#6cbe45"/><path d="M310.058 190.36c4.801 3.9 6.601 10.199 4.2 15.899l-11.4 27.902c-2.401 5.4-8.101 9-14.399 7.798l-24.6-3.6c-7.5 9.6-15.901 18.001-25.499 25.201l3.6 24.901c1.199 5.999-2.401 11.999-7.8 14.399l-27.9 11.4c-1.501.601-3.301 1.199-5.101 1.199-4.199 0-8.099-2.1-10.8-5.4l-14.7-20.4c-7.5 1.199-15 1.5-22.5 1.5V232.36c1.5.298 2.999.298 4.501.298 9.598 0 19.199-1.8 28.799-5.7 18.3-7.798 32.701-22.2 40.501-40.499 7.798-18.6 7.798-39 0-57.599-7.8-18.3-22.202-32.701-40.501-40.499-10.8-4.501-21.899-6.301-33.3-5.7v-58.2c7.5-.3 15 0 22.5 1.199l14.7-20.4c3.9-4.801 10.201-6.601 15.901-4.2l27.9 11.4c5.4 2.401 9 8.401 7.8 14.399l-3.6 24.6c9.598 7.2 17.999 15.901 25.199 25.501l24.901-3.9c6.299-.901 11.999 2.699 14.399 8.099l11.4 27.902c2.401 5.698.601 11.999-4.2 15.899l-20.4 14.7c1.8 12.001 1.8 24 0 36l20.399 14.7z" fill="#297768"/></g><g class="right-gear"><path d="M502.099 320.901l-24.6-6c-2.999-11.7-7.5-22.8-13.499-33.3l12.9-21.301c3.3-5.4 2.399-12.001-2.1-16.5l-21-21c-4.501-4.501-11.1-5.4-16.5-2.1L416 233.6a133.814 133.814 0 00-33.3-13.5l-6-24.598c-1.5-6-6.899-9.5-12.9-9.5h-30c-6 0-11.4 3.5-12.9 9.5l-6 24.598c-11.7 3.001-22.8 7.5-33.3 13.5l-21.301-12.9c-5.4-3.3-11.999-2.401-16.5 2.1l-21 21c-4.499 4.499-5.4 11.1-2.1 16.5l12.9 21.301a133.81 133.81 0 00-13.499 33.3l-24.6 6c-6 1.5-9.501 6.899-9.501 12.9v30c0 6 3.5 11.4 9.501 12.9l24.6 6a133.82 133.82 0 0013.499 33.3l-12.9 21.301c-3.3 5.4-2.399 11.999 2.1 16.5l21 21c4.501 4.499 11.1 5.4 16.5 2.098L281.6 464a133.738 133.738 0 0033.3 13.5l6 24.6c1.5 6 6.899 9.901 12.9 9.901h30c6 0 11.4-3.9 12.9-9.901l6-24.6c11.7-2.999 22.8-7.5 33.3-13.5l21.301 12.9c5.4 3.301 11.999 2.401 16.5-2.098l21-21c4.499-4.501 5.4-11.1 2.1-16.5l-12.9-21.301a133.842 133.842 0 0013.499-33.3l24.6-6c6-1.5 9.901-6.899 9.901-12.9v-30c-.001-6-3.901-11.4-9.902-12.9zM348.8 423.801c-41.4 0-75-33.6-75-75s33.6-75 75-75 75 33.6 75 75-33.6 75-75 75z" fill="#6cbe45"/><path d="M512 333.801v30c0 6-3.9 11.4-9.901 12.9l-24.6 6A133.812 133.812 0 01464 416l12.9 21.301c3.3 5.4 2.399 11.999-2.1 16.5l-21 21c-4.501 4.499-11.1 5.4-16.5 2.098L416 464a133.738 133.738 0 01-33.3 13.5l-6 24.6c-1.5 6-6.899 9.901-12.9 9.901h-15v-88.2c41.4 0 75-33.6 75-75s-33.6-75-75-75v-87.8h15c6 0 11.4 3.5 12.9 9.5l6 24.598c11.7 3.001 22.8 7.5 33.3 13.5l21.301-12.9c5.4-3.3 11.999-2.401 16.5 2.1l21 21c4.499 4.499 5.4 11.1 2.1 16.5l-12.9 21.301a133.81 133.81 0 0113.499 33.3l24.6 6c6 1.501 9.9 6.901 9.9 12.901z" fill="#297768"/></g></svg>